<?xml version="1.0" encoding="UTF-8" ?>
<!DOCTYPE svg PUBLIC "-//W3C//DTD SVG 1.1//EN" "http://www.w3.org/Graphics/SVG/1.1/DTD/svg11.dtd">
<svg width="1000pt" height="1000pt" viewBox="0 0 1000 1000" version="1.1" xmlns="http://www.w3.org/2000/svg">
<g id="#361f00ff">
<path fill="#361f00" opacity="1.00" d=" M 470.87 35.81 C 472.00 33.43 474.31 31.10 477.17 31.55 C 480.46 32.96 481.58 36.65 483.75 39.22 C 488.62 45.33 495.42 49.64 502.52 52.75 C 512.23 57.10 522.60 59.65 532.98 61.83 C 544.58 63.94 556.22 66.17 568.02 66.75 C 585.50 68.02 603.02 69.67 620.15 73.51 C 638.92 77.97 657.34 84.36 674.20 93.85 C 692.02 103.73 709.18 116.84 718.52 135.42 C 724.06 146.48 728.66 158.27 730.37 170.59 C 746.03 170.30 760.57 177.30 773.43 185.60 C 788.89 195.74 802.75 208.74 812.31 224.68 C 822.99 241.65 828.93 261.17 840.28 277.76 C 844.79 284.42 849.94 290.92 856.84 295.24 C 863.18 299.17 870.77 300.24 878.10 300.51 C 881.54 300.77 885.67 301.13 887.88 304.15 C 889.94 307.54 888.49 311.68 886.94 314.96 C 881.80 324.77 873.21 332.88 862.82 336.86 C 854.58 339.73 845.71 339.55 837.12 339.05 C 837.92 351.57 840.44 364.05 845.46 375.58 C 846.88 378.79 848.81 382.28 852.35 383.47 C 857.39 385.44 862.86 384.25 868.10 384.67 C 870.83 385.42 872.22 388.94 870.66 391.34 C 867.99 395.94 863.97 399.59 860.18 403.25 C 854.21 408.95 846.26 412.40 838.06 413.10 C 821.05 414.40 803.57 410.68 788.82 402.03 C 783.95 412.16 778.52 422.05 774.72 432.66 C 763.78 460.25 758.58 489.88 757.43 519.46 C 768.89 520.24 778.57 528.16 784.15 537.81 C 788.91 546.24 791.51 555.71 793.09 565.22 C 796.17 589.09 794.35 613.27 791.19 637.03 C 788.83 655.97 783.96 675.11 773.21 691.13 C 767.17 699.90 760.23 708.34 751.25 714.24 C 749.11 715.74 746.36 717.06 746.05 719.99 C 739.59 744.40 731.04 768.27 720.12 791.04 C 710.42 811.20 699.65 831.02 685.69 848.60 C 678.79 857.33 671.34 865.64 663.36 873.40 C 652.22 884.64 640.33 895.24 627.01 903.86 C 608.47 915.73 588.94 926.31 568.11 933.58 C 550.76 939.58 532.42 943.43 513.98 942.59 C 482.98 941.13 453.30 930.14 425.95 916.04 C 397.02 899.93 370.69 879.08 348.65 854.34 C 321.42 822.28 301.47 784.42 288.43 744.52 C 284.38 733.07 281.28 721.33 277.89 709.68 C 266.38 709.13 254.59 705.01 246.64 696.39 C 235.40 684.20 229.21 668.34 225.14 652.51 C 219.90 628.79 218.69 603.57 225.80 580.10 C 230.12 566.36 235.85 552.54 245.92 541.97 C 248.46 539.19 251.54 536.94 254.93 535.30 C 254.82 523.18 254.12 511.07 253.83 498.96 C 253.31 465.65 251.80 432.33 253.19 399.03 C 240.13 406.83 229.99 419.10 224.21 433.12 C 222.86 436.40 222.69 440.05 221.25 443.30 C 220.21 445.40 217.25 446.01 215.45 444.55 C 201.43 434.66 193.91 417.71 192.41 400.97 C 191.96 392.61 191.70 384.04 194.11 375.92 C 198.07 361.93 206.16 349.27 216.57 339.20 C 208.74 336.80 201.53 332.81 194.57 328.56 C 182.58 321.31 171.23 312.49 163.15 300.90 C 152.51 286.16 148.49 267.82 147.51 249.96 C 147.02 239.54 148.03 229.03 150.98 219.02 C 156.57 200.85 169.89 186.00 185.24 175.27 C 190.22 172.01 195.39 168.86 201.04 166.89 C 204.60 165.27 209.00 169.66 207.21 173.21 C 205.77 177.36 204.19 181.67 204.77 186.14 C 205.72 193.59 210.56 200.49 217.36 203.74 C 222.12 206.27 227.79 206.12 232.92 204.96 C 240.49 203.17 247.66 200.09 254.95 197.41 C 249.00 186.24 245.43 173.67 245.63 160.97 C 245.87 152.47 247.97 144.09 251.40 136.34 C 252.52 133.44 256.44 132.43 259.01 133.97 C 260.97 136.79 261.59 140.43 264.11 142.89 C 267.18 146.02 271.79 146.66 275.96 147.02 C 285.85 147.56 295.46 144.37 304.41 140.45 C 314.41 136.15 323.84 130.67 333.25 125.23 C 350.03 115.58 367.61 107.32 385.77 100.62 C 414.15 90.57 444.74 86.37 474.73 89.48 C 468.34 81.52 466.37 70.95 466.53 60.96 C 466.46 52.42 467.36 43.68 470.87 35.81 M 474.68 58.00 C 473.79 64.57 478.34 70.04 482.06 74.93 C 491.24 84.50 502.55 92.00 514.71 97.24 C 527.71 101.15 540.72 105.20 553.10 110.84 C 586.33 124.90 615.62 147.52 638.88 174.99 C 648.70 186.76 657.54 199.62 662.99 214.03 C 663.94 217.27 665.55 221.31 663.12 224.27 C 661.53 225.23 659.61 224.54 657.89 224.50 C 657.06 220.79 656.26 217.04 654.61 213.59 C 648.02 199.06 637.94 186.49 627.56 174.51 C 614.63 160.66 600.65 147.63 584.66 137.36 C 565.35 124.10 543.57 114.85 521.31 107.82 C 507.41 103.74 493.32 100.14 478.93 98.28 C 457.36 95.11 435.33 96.68 414.05 101.11 C 383.33 107.79 354.86 121.96 327.92 137.80 C 313.85 145.49 299.23 153.28 283.05 155.17 C 273.49 156.23 262.65 154.40 256.21 146.60 C 254.41 153.55 253.21 160.79 254.18 167.97 C 254.64 170.87 254.62 174.11 256.60 176.48 C 260.91 182.42 268.26 184.98 275.17 186.42 C 284.27 188.22 293.20 184.92 302.09 183.47 C 311.34 182.11 320.61 180.75 329.96 180.26 C 355.16 178.35 380.47 182.37 404.61 189.50 C 426.87 195.88 448.74 204.28 468.42 216.63 C 483.74 226.07 497.38 238.18 508.87 252.01 C 510.65 253.90 511.71 256.82 510.25 259.21 C 508.66 260.29 506.30 260.77 504.96 259.06 C 486.29 236.51 461.40 219.54 434.42 208.47 C 413.16 200.03 391.11 193.16 368.41 189.96 C 355.08 187.76 341.52 188.06 328.07 188.62 C 311.56 190.05 295.02 192.41 279.17 197.41 C 264.92 201.60 251.55 208.27 237.29 212.40 C 233.65 213.50 229.83 213.87 226.03 213.84 C 215.73 214.31 205.94 207.90 200.80 199.20 C 196.62 192.89 195.98 185.07 196.83 177.73 C 185.00 184.47 174.55 193.73 166.84 204.97 C 158.05 217.39 155.26 233.01 155.70 247.97 C 156.26 260.24 158.15 272.61 163.01 283.97 C 166.64 292.40 172.11 299.96 178.61 306.41 C 183.29 310.86 188.31 315.18 194.41 317.54 C 204.10 321.43 214.33 325.29 224.97 324.34 C 230.69 323.77 236.66 322.90 241.52 319.60 C 256.47 310.38 273.31 304.69 290.43 301.11 C 314.33 296.76 338.90 295.51 363.05 298.52 C 371.68 299.81 380.44 301.09 388.56 304.46 C 390.38 305.37 392.95 306.53 392.86 308.95 C 393.17 311.67 389.88 313.56 387.57 312.16 C 377.26 307.83 366.00 306.76 354.96 305.91 C 328.83 304.08 302.13 305.54 276.91 313.03 C 253.67 319.75 232.16 332.93 216.46 351.43 C 210.57 358.31 206.11 366.36 203.02 374.85 C 198.81 387.42 199.59 401.25 203.39 413.82 C 206.01 420.98 209.30 428.39 215.35 433.32 C 224.03 408.49 245.79 388.04 271.98 383.34 C 274.61 382.75 277.22 385.33 276.70 387.97 C 276.35 390.65 273.17 391.08 271.16 392.02 C 267.65 392.91 266.03 396.39 264.38 399.26 C 262.66 402.62 260.58 406.08 260.64 409.98 C 260.65 420.65 260.72 431.31 260.78 441.98 C 261.80 459.28 261.22 476.64 261.99 493.95 C 263.03 502.70 260.98 511.98 264.66 520.30 C 265.53 522.42 267.38 524.88 270.01 524.28 C 272.52 523.33 273.60 520.72 274.16 518.31 C 279.57 498.94 287.44 480.42 295.05 461.86 C 302.44 443.96 307.08 425.13 312.79 406.68 C 313.72 403.49 314.01 399.19 310.84 397.13 C 307.37 394.04 302.39 395.42 298.44 393.44 C 298.61 391.77 297.99 389.76 299.28 388.42 C 300.37 386.92 302.39 386.99 304.04 386.76 C 312.35 386.19 320.68 385.51 329.01 386.20 C 344.92 387.26 361.37 386.34 376.21 380.04 C 385.09 376.90 393.20 370.08 395.68 360.72 C 394.52 359.63 393.83 357.65 392.06 357.48 C 389.18 357.46 386.39 358.37 383.56 358.77 C 382.54 357.35 380.34 356.05 380.91 354.04 C 381.64 350.95 385.21 350.27 387.81 349.52 C 395.15 347.88 402.38 345.49 409.94 345.07 C 423.38 344.14 436.83 345.78 450.13 347.60 C 468.01 350.01 486.28 350.74 504.15 347.73 C 524.95 343.93 544.91 336.27 563.63 326.53 C 567.86 324.40 572.00 321.27 573.69 316.68 C 574.72 314.79 572.36 313.60 570.97 312.92 C 567.36 311.97 564.03 314.98 560.41 314.55 C 557.08 313.18 557.76 308.15 561.01 307.13 C 569.38 303.66 578.83 305.21 587.24 307.74 C 603.04 313.31 616.39 323.91 631.84 330.24 C 641.66 334.19 651.59 338.11 662.01 340.14 C 669.02 341.58 676.02 339.14 683.04 339.58 C 686.54 339.81 688.09 343.30 688.93 346.23 C 692.06 356.19 699.74 364.09 708.60 369.30 C 716.27 373.75 724.37 377.43 732.03 381.90 C 741.03 386.89 748.42 394.57 753.62 403.39 C 755.80 406.58 751.40 410.91 748.20 408.74 C 745.34 406.42 743.55 402.71 739.87 401.48 C 738.41 401.17 736.35 400.92 735.81 402.73 C 733.94 406.89 733.75 411.55 733.44 416.03 C 733.15 421.76 731.90 427.37 730.93 433.00 C 728.73 446.42 727.66 460.44 731.55 473.65 C 733.80 480.32 737.40 487.21 744.02 490.42 C 751.34 487.61 753.03 479.18 754.52 472.37 C 757.90 455.07 763.31 438.21 770.10 421.95 C 775.25 408.34 775.40 392.77 769.61 379.35 C 768.21 376.23 765.09 373.54 765.48 369.90 C 766.11 366.99 769.11 367.17 771.45 367.23 C 777.90 375.58 782.50 385.42 790.13 392.81 C 801.56 401.22 816.02 404.45 829.97 405.25 C 836.31 405.31 842.93 404.65 848.58 401.55 C 852.61 399.44 855.83 396.14 859.00 392.94 C 852.84 392.67 846.00 391.15 842.07 385.96 C 837.41 379.84 835.29 372.28 833.03 365.04 C 829.63 354.16 829.83 342.59 827.06 331.58 C 823.05 318.44 815.55 306.64 807.10 295.92 C 794.84 280.51 777.67 269.65 759.45 262.59 C 741.71 256.37 722.69 252.64 703.85 254.64 C 697.33 255.35 691.34 258.21 684.99 259.55 C 681.19 259.75 680.20 254.01 683.63 252.69 C 691.94 249.09 700.89 246.53 710.00 246.27 C 739.33 245.04 768.93 254.15 792.80 271.17 C 805.43 280.17 815.72 292.10 823.78 305.29 C 826.85 310.67 831.78 314.53 836.35 318.57 C 841.44 322.99 846.90 327.24 853.31 329.57 C 856.57 330.81 859.98 329.23 862.93 327.87 C 870.71 323.88 876.91 317.09 880.60 309.20 C 871.76 308.04 862.41 307.92 854.45 303.40 C 843.78 297.39 836.30 287.23 830.02 276.98 C 820.43 261.32 814.63 243.67 804.79 228.14 C 795.40 212.93 781.84 200.59 766.76 191.15 C 758.34 186.03 749.54 181.10 739.79 179.10 C 734.49 177.88 728.94 178.89 723.70 177.33 C 722.24 172.91 722.84 168.13 721.31 163.73 C 717.64 152.21 713.03 140.85 706.15 130.84 C 698.64 120.04 687.97 111.93 676.95 104.98 C 655.08 91.52 630.29 83.22 605.04 79.00 C 589.80 76.43 574.34 75.74 558.99 74.15 C 539.07 71.81 518.94 68.53 500.32 60.77 C 491.18 57.13 482.88 51.33 476.70 43.64 C 475.57 48.35 474.95 53.17 474.68 58.00 M 576.14 328.12 C 561.35 338.17 544.62 344.96 527.67 350.41 C 511.03 355.81 493.50 358.35 476.01 357.79 C 456.92 358.09 438.21 353.11 419.16 353.10 C 416.29 357.50 412.94 361.55 409.35 365.36 C 403.80 371.17 398.45 377.38 391.52 381.60 C 382.23 387.27 371.80 390.94 361.16 393.08 C 349.71 394.89 338.07 394.92 326.54 394.15 C 324.43 399.62 322.65 405.21 320.63 410.72 C 314.33 428.86 309.98 447.67 302.50 465.40 C 293.81 486.68 284.71 507.94 279.56 530.42 C 275.43 549.37 271.97 568.57 271.41 588.00 C 270.71 600.95 269.54 614.09 271.97 626.94 C 273.40 635.60 273.93 644.37 274.53 653.12 C 279.91 685.45 287.50 717.48 298.48 748.38 C 311.97 787.34 332.35 824.26 360.18 854.83 C 382.71 878.36 409.01 898.42 438.14 913.06 C 443.01 915.76 448.62 916.27 454.00 917.22 C 494.67 923.41 536.55 925.22 577.08 917.03 C 585.57 914.92 594.48 913.58 602.16 909.14 C 614.93 901.93 627.61 894.36 638.85 884.88 C 655.13 870.87 670.37 855.49 683.24 838.26 C 695.52 821.71 705.09 803.36 714.00 784.83 C 729.11 752.16 739.77 717.48 746.12 682.06 C 748.71 668.20 749.34 654.09 750.33 640.06 C 752.04 612.73 752.16 585.29 750.35 557.96 C 749.24 550.71 749.44 543.35 748.95 536.05 C 748.77 523.64 744.97 511.24 737.91 501.00 C 732.61 492.72 726.24 484.84 723.40 475.27 C 719.21 460.16 720.57 444.23 723.25 428.98 C 725.75 415.40 727.82 401.38 725.36 387.64 C 713.89 381.02 700.84 376.34 691.71 366.34 C 686.49 361.09 682.99 354.46 680.44 347.58 C 672.00 348.96 663.14 349.53 654.85 347.02 C 641.27 343.18 627.93 338.24 615.53 331.45 C 606.84 326.94 598.66 321.50 589.75 317.42 C 585.15 320.91 580.92 324.87 576.14 328.12 M 757.42 526.99 C 757.39 542.01 758.83 556.98 759.41 571.98 C 759.93 590.64 759.88 609.32 759.32 627.97 C 758.89 633.30 758.53 638.64 758.42 643.99 C 757.75 655.04 756.49 666.04 755.51 677.06 C 755.56 680.30 757.79 685.56 761.86 683.89 C 767.80 681.75 772.27 676.44 774.66 670.73 C 779.30 658.67 782.01 645.90 783.37 633.07 C 785.17 619.44 786.42 605.72 786.38 591.96 C 786.48 575.64 785.42 558.68 778.06 543.81 C 774.22 535.50 766.81 528.21 757.42 526.99 M 235.90 575.91 C 228.62 595.29 227.62 616.53 230.68 636.87 C 233.12 654.54 238.56 672.28 249.23 686.78 C 252.69 691.82 260.05 695.27 265.66 691.61 C 270.41 687.64 270.78 680.73 270.12 675.03 C 261.42 631.71 258.51 587.53 255.44 543.53 C 245.44 551.74 240.28 564.09 235.90 575.91 Z" />
<path fill="#361f00" opacity="1.00" d=" M 600.78 99.29 C 606.20 99.48 611.19 101.78 616.03 104.00 C 629.74 110.56 643.05 118.41 654.01 129.07 C 669.13 143.42 680.47 161.61 687.55 181.17 C 689.53 187.65 692.32 194.25 691.34 201.18 C 690.43 201.42 689.53 201.65 688.64 201.89 C 683.37 182.00 673.57 163.33 660.43 147.51 C 650.71 135.76 638.40 126.53 625.70 118.26 C 617.11 112.36 607.35 107.64 600.78 99.29 Z" />
<path fill="#361f00" opacity="1.00" d=" M 457.27 145.84 C 466.07 145.27 474.64 147.74 483.08 149.88 C 493.54 152.86 503.92 156.36 513.55 161.48 C 529.02 169.80 543.45 179.91 557.32 190.66 C 577.49 206.47 595.83 225.47 607.26 248.65 C 608.79 251.52 609.68 254.72 609.21 258.00 C 605.28 253.10 602.44 247.43 598.64 242.44 C 579.04 214.13 551.16 192.82 521.94 175.23 C 510.62 168.51 498.53 163.24 486.13 158.88 C 476.35 154.99 465.63 152.55 457.27 145.84 Z" />
<path fill="#361f00" opacity="1.00" d=" M 685.94 147.30 C 692.09 151.89 695.06 159.35 697.80 166.25 C 700.55 173.07 701.33 180.54 700.35 187.81 C 699.42 187.72 698.50 187.59 697.60 187.42 C 695.99 182.50 695.67 177.23 693.59 172.45 C 690.85 164.14 686.42 156.20 685.94 147.30 Z" />
<path fill="#361f00" opacity="1.00" d=" M 650.81 161.06 C 656.49 163.86 660.10 169.29 663.50 174.42 C 668.56 182.58 673.03 191.24 675.57 200.55 C 676.38 203.35 676.36 206.29 675.99 209.15 C 674.76 207.54 673.79 205.75 673.05 203.87 C 669.94 196.10 665.32 189.07 661.11 181.86 C 657.19 175.20 652.26 168.84 650.81 161.06 Z" />
<path fill="#361f00" opacity="1.00" d=" M 565.95 173.95 C 569.42 174.78 572.83 176.03 575.63 178.29 C 589.70 187.96 599.72 202.20 608.44 216.62 C 612.83 223.85 617.08 231.21 620.51 238.96 C 621.64 241.28 621.71 243.90 621.69 246.44 C 620.62 245.49 619.55 244.53 618.74 243.36 C 608.24 227.38 598.29 210.82 584.99 196.96 C 580.05 191.58 574.53 186.77 569.73 181.28 C 567.85 179.21 566.84 176.56 565.95 173.95 Z" />
<path fill="#361f00" opacity="1.00" d=" M 730.36 199.04 C 732.36 196.37 735.90 196.00 738.98 196.03 C 745.91 195.97 752.26 199.31 757.97 202.90 C 760.89 204.70 763.46 207.05 765.40 209.89 C 755.15 209.90 747.02 202.28 737.02 201.04 C 734.85 200.30 731.76 201.24 730.36 199.04 Z" />
<path fill="#361f00" opacity="1.00" d=" M 714.95 214.52 C 715.94 213.02 716.95 211.30 718.93 211.07 C 729.95 208.82 741.57 210.40 751.73 215.18 C 763.79 220.27 773.76 228.95 783.44 237.55 C 792.28 245.91 801.65 254.04 808.07 264.54 C 799.14 261.53 792.14 254.95 784.94 249.16 C 772.52 239.09 760.96 227.45 746.05 221.04 C 736.40 216.28 725.55 215.13 714.95 214.52 Z" />
<path fill="#361f00" opacity="1.00" d=" M 532.14 215.67 C 538.51 215.36 544.37 218.21 549.80 221.21 C 560.49 227.11 569.01 236.24 575.80 246.25 C 577.85 249.24 579.68 252.55 579.80 256.27 C 576.35 254.08 574.15 250.56 571.49 247.57 C 565.71 240.97 559.13 235.02 551.74 230.28 C 545.04 225.66 537.13 222.37 532.14 215.67 Z" />
<path fill="#361f00" opacity="1.00" d=" M 336.93 217.21 C 345.07 215.86 353.35 216.67 361.49 217.69 C 386.06 221.08 409.53 229.80 431.98 240.07 C 450.39 248.50 468.03 258.65 484.47 270.48 C 487.31 272.69 491.03 274.63 491.51 278.61 C 487.36 276.90 483.50 274.60 479.64 272.34 C 461.09 261.36 441.99 251.25 422.01 243.12 C 405.26 236.23 388.08 230.21 370.28 226.72 C 359.10 223.87 347.07 223.12 336.93 217.21 Z" />
<path fill="#361f00" opacity="1.00" d=" M 703.67 224.77 C 714.58 221.81 726.63 223.80 736.13 229.90 C 738.14 231.10 739.32 233.19 739.97 235.39 C 731.47 235.99 724.04 230.96 715.98 229.12 C 711.60 227.83 707.00 228.02 702.52 227.50 C 702.84 226.57 703.25 225.67 703.67 224.77 Z" />
<path fill="#361f00" opacity="1.00" d=" M 299.74 255.98 C 301.76 255.34 303.80 254.69 305.93 254.46 C 318.58 252.86 331.36 253.73 344.04 254.49 C 372.36 257.34 399.41 267.44 424.57 280.41 C 434.76 285.79 445.19 290.89 454.46 297.81 C 454.50 298.44 454.58 299.69 454.63 300.31 C 438.78 293.13 423.03 285.70 406.84 279.32 C 385.72 270.96 363.56 265.13 340.93 262.87 C 327.18 260.98 312.72 261.41 299.74 255.98 Z" />
<path fill="#361f00" opacity="1.00" d=" M 410.99 258.78 C 419.91 259.57 428.29 263.09 436.51 266.46 C 442.79 269.25 449.04 272.25 454.66 276.25 C 457.47 278.38 460.66 280.71 461.35 284.42 C 456.51 282.09 452.09 278.99 447.15 276.87 C 438.64 273.12 430.09 269.46 421.68 265.48 C 417.93 263.57 414.13 261.62 410.99 258.78 Z" />
<path fill="#361f00" opacity="1.00" d=" M 699.95 274.13 C 704.71 270.28 711.12 272.14 716.46 273.45 C 724.46 275.81 732.77 278.86 738.65 285.03 C 729.16 284.96 720.32 281.18 711.43 278.34 C 707.59 276.98 703.35 276.54 699.95 274.13 Z" />
<path fill="#361f00" opacity="1.00" d=" M 695.76 294.37 C 697.35 290.75 701.81 291.47 705.04 291.34 C 721.69 291.74 737.80 297.58 752.17 305.75 C 766.68 314.00 779.02 325.46 790.38 337.57 C 796.13 344.20 802.85 350.50 805.80 358.99 C 798.21 356.37 792.72 350.23 787.00 344.92 C 774.52 332.40 762.37 319.12 746.86 310.26 C 731.33 301.35 713.87 294.50 695.76 294.37 Z" />
<path fill="#361f00" opacity="1.00" d=" M 699.71 310.92 C 700.98 310.09 702.27 308.96 703.93 309.19 C 710.47 309.33 716.73 311.70 722.59 314.43 C 728.35 317.21 734.09 320.52 738.10 325.64 C 736.13 325.52 734.14 325.56 732.29 324.86 C 723.23 321.53 715.00 316.22 705.79 313.27 C 703.73 312.57 701.69 311.80 699.71 310.92 Z" />
<path fill="#361f00" opacity="1.00" d=" M 327.75 321.34 C 337.76 319.90 347.92 321.18 357.84 322.79 C 360.97 323.54 364.60 323.95 366.67 326.74 C 358.45 327.04 350.24 326.12 342.12 324.99 C 337.22 324.30 332.30 323.36 327.75 321.34 Z" />
<path fill="#361f00" opacity="1.00" d=" M 261.32 344.42 C 280.45 337.67 300.79 335.16 320.98 334.59 C 334.45 334.24 347.91 335.64 361.17 337.92 C 363.44 338.26 365.47 339.37 367.37 340.60 C 361.29 341.72 355.11 340.56 348.98 340.60 C 326.83 339.60 304.50 341.26 282.93 346.57 C 276.74 348.23 270.40 349.24 264.12 350.52 C 259.14 351.46 253.94 352.28 248.95 350.96 C 252.63 348.04 256.84 345.83 261.32 344.42 Z" />
<path fill="#361f00" opacity="1.00" d=" M 325.41 348.12 C 333.23 344.79 341.89 346.82 349.93 348.14 C 354.03 349.04 358.62 349.00 362.11 351.63 C 354.44 352.37 346.71 352.68 339.00 352.63 C 334.27 352.22 328.62 352.23 325.41 348.12 Z" />
<path fill="#361f00" opacity="1.00" d=" M 392.50 501.66 C 413.93 498.83 436.09 501.01 456.37 508.60 C 461.05 510.48 465.98 512.75 468.85 517.13 C 470.93 520.42 472.27 524.78 470.39 528.47 C 468.40 532.49 463.22 533.97 459.10 532.70 C 453.55 531.11 448.60 528.04 443.42 525.57 C 432.09 519.88 419.58 516.88 407.05 515.43 C 392.08 513.47 376.39 515.25 362.68 521.75 C 358.86 523.82 353.39 518.77 355.69 514.84 C 357.39 511.78 360.61 510.12 363.64 508.68 C 372.73 504.56 382.70 503.06 392.50 501.66 Z" />
<path fill="#361f00" opacity="1.00" d=" M 622.35 503.51 C 634.60 502.93 646.93 503.72 658.94 506.23 C 666.66 507.79 674.62 509.40 681.36 513.70 C 683.56 515.09 685.81 517.19 685.86 519.98 C 685.84 522.63 683.19 524.18 681.10 525.23 C 678.63 525.31 676.56 523.60 674.30 522.82 C 658.80 516.60 641.57 516.80 625.33 519.52 C 616.67 521.16 608.10 523.46 600.11 527.25 C 593.65 530.03 587.76 534.28 580.79 535.75 C 576.16 536.75 570.52 534.11 569.84 529.06 C 568.85 521.50 575.14 515.27 581.68 512.68 C 594.58 507.37 608.45 504.47 622.35 503.51 Z" />
<path fill="#361f00" opacity="1.00" d=" M 402.52 537.74 C 407.51 536.80 412.85 537.13 417.42 539.49 C 425.76 542.87 430.38 552.42 429.60 561.12 C 429.31 567.40 425.71 573.06 421.13 577.16 C 414.87 581.48 406.38 582.80 399.29 579.79 C 389.15 575.77 382.96 563.65 386.41 553.13 C 388.19 545.38 395.08 539.76 402.52 537.74 M 394.38 565.31 C 392.50 567.45 393.85 570.64 396.05 571.95 C 401.07 575.12 407.22 576.99 413.16 575.85 C 415.65 574.95 418.08 573.22 419.01 570.64 C 418.71 569.26 417.78 568.14 417.10 566.95 C 412.09 566.07 406.34 568.52 402.04 564.93 C 399.83 563.13 396.42 563.41 394.38 565.31 Z" />
<path fill="#361f00" opacity="1.00" d=" M 628.41 540.67 C 634.43 539.68 641.05 540.23 646.02 544.13 C 657.30 551.01 658.70 568.92 648.94 577.73 C 640.06 587.53 622.05 586.13 615.21 574.70 C 606.26 562.83 613.40 543.06 628.41 540.67 M 639.47 567.49 C 636.82 569.24 633.73 570.60 630.50 569.70 C 627.32 568.86 622.05 569.63 622.06 573.80 C 623.09 575.98 625.17 577.48 627.21 578.65 C 633.61 580.26 640.20 577.88 645.57 574.43 C 646.89 573.44 647.47 571.68 647.58 570.10 C 646.88 566.55 642.16 565.95 639.47 567.49 Z" />
<path fill="#361f00" opacity="1.00" d=" M 433.71 677.04 C 433.96 660.10 442.61 643.45 456.42 633.63 C 454.86 639.04 450.29 642.88 448.29 648.13 C 445.82 654.57 442.17 660.85 442.25 667.96 C 442.21 672.89 441.65 678.24 444.26 682.68 C 446.48 686.72 448.06 691.33 451.69 694.38 C 455.91 697.96 461.37 699.70 465.46 703.48 C 465.62 704.17 465.94 705.53 466.10 706.21 C 463.01 706.06 459.87 705.88 456.96 704.76 C 449.85 702.01 442.26 698.58 438.26 691.70 C 435.78 687.21 433.61 682.26 433.71 677.04 Z" />
<path fill="#361f00" opacity="1.00" d=" M 570.05 638.68 C 568.89 637.48 570.30 635.95 570.44 634.64 C 574.71 638.30 579.19 641.81 582.88 646.09 C 589.59 655.22 594.22 666.58 592.84 678.09 C 591.73 690.38 584.21 702.95 572.10 706.92 C 572.90 702.21 575.74 698.32 578.83 694.84 C 583.96 689.62 585.70 682.06 586.27 674.99 C 587.01 668.31 585.02 661.69 582.22 655.72 C 578.70 649.66 574.16 644.30 570.05 638.68 Z" />
<path fill="#361f00" opacity="1.00" d=" M 523.54 688.53 C 531.22 683.82 540.32 679.63 549.51 681.65 C 553.99 682.63 559.28 686.60 556.76 691.76 C 554.47 688.65 551.01 686.16 546.98 686.38 C 542.65 686.68 538.17 687.88 534.80 690.74 C 528.58 695.48 521.90 700.36 513.94 701.43 C 508.82 701.93 503.71 700.60 498.86 699.06 C 492.37 696.84 487.37 691.96 481.64 688.42 C 477.41 686.54 474.43 692.15 470.15 690.77 C 469.58 686.02 474.42 683.29 478.46 682.61 C 484.79 681.24 490.65 684.96 495.57 688.48 C 499.71 691.70 504.65 694.34 510.04 694.27 C 515.12 694.26 519.54 691.35 523.54 688.53 Z" />
<path fill="#361f00" opacity="1.00" d=" M 414.17 778.20 C 416.42 774.73 412.51 770.18 415.88 767.11 C 419.15 769.16 419.80 773.09 420.78 776.51 C 444.90 780.73 469.47 781.83 493.93 781.60 C 518.66 781.47 543.44 782.54 568.12 780.54 C 574.46 779.99 580.77 779.14 587.12 778.71 C 590.67 778.45 594.30 778.09 597.66 776.82 C 598.20 774.85 598.45 772.84 598.78 770.85 C 599.40 770.56 600.63 769.99 601.25 769.71 C 602.39 774.76 604.79 780.73 601.55 785.47 C 599.76 783.53 598.38 781.27 597.81 778.68 C 589.12 782.30 579.57 782.74 570.67 785.67 C 554.34 788.86 537.63 788.93 521.05 788.73 C 506.41 788.88 491.82 787.86 477.21 787.16 C 469.55 786.31 461.77 786.58 454.21 784.85 C 442.78 783.28 431.36 781.57 420.06 779.18 C 417.61 782.76 414.86 786.31 410.96 788.38 C 411.22 784.77 412.53 781.39 414.17 778.20 Z" />
<path fill="#361f00" opacity="1.00" d=" M 478.74 812.00 C 483.71 809.31 489.60 809.63 495.06 809.91 C 513.40 811.58 531.83 809.88 550.18 810.83 C 549.23 812.02 548.21 813.35 546.57 813.51 C 536.13 815.57 525.47 815.86 514.95 817.31 C 504.11 818.74 492.98 818.25 482.39 815.45 C 480.87 814.75 478.84 813.94 478.74 812.00 Z" />
</g>
<g id="#ffffffff">
<path fill="#ffffff" opacity="1.00" d=" M 394.38 565.31 C 396.42 563.41 399.83 563.13 402.04 564.93 C 406.34 568.52 412.09 566.07 417.10 566.95 C 417.78 568.14 418.71 569.26 419.01 570.64 C 418.08 573.22 415.65 574.95 413.16 575.85 C 407.22 576.99 401.07 575.12 396.05 571.95 C 393.85 570.64 392.50 567.45 394.38 565.31 Z" />
<path fill="#ffffff" opacity="1.00" d=" M 639.47 567.49 C 642.16 565.95 646.88 566.55 647.58 570.10 C 647.47 571.68 646.89 573.44 645.57 574.43 C 640.20 577.88 633.61 580.26 627.21 578.65 C 625.17 577.48 623.09 575.98 622.06 573.80 C 622.05 569.63 627.32 568.86 630.50 569.70 C 633.73 570.60 636.82 569.24 639.47 567.49 Z" />
</g>
</svg>
