<?xml version="1.0" encoding="UTF-8" ?>
<!DOCTYPE svg PUBLIC "-//W3C//DTD SVG 1.1//EN" "http://www.w3.org/Graphics/SVG/1.1/DTD/svg11.dtd">
<svg width="1000pt" height="1000pt" viewBox="0 0 1000 1000" version="1.1" xmlns="http://www.w3.org/2000/svg">
<g id="#eef1f1ff">
<path fill="#eef1f1" opacity="1.00" d=" M 474.84 31.49 C 477.18 31.26 479.47 32.37 480.57 34.48 C 485.88 44.21 495.85 50.23 505.88 54.18 C 523.49 60.98 542.31 63.78 560.93 66.25 C 583.86 67.85 606.99 69.61 629.22 75.80 C 643.38 79.80 657.33 84.75 670.30 91.77 C 686.69 100.38 702.56 111.30 713.29 126.67 C 718.37 134.01 722.02 142.21 725.17 150.54 C 727.28 157.12 729.79 163.67 730.32 170.63 C 746.02 170.22 760.58 177.33 773.46 185.62 C 788.93 195.79 802.83 208.80 812.36 224.79 C 822.49 240.83 828.28 259.19 838.57 275.15 C 843.48 282.74 849.02 290.30 856.78 295.21 C 863.09 299.10 870.65 300.29 877.96 300.50 C 881.24 300.72 885.00 301.06 887.43 303.55 C 889.93 306.60 888.77 310.85 887.35 314.12 C 882.17 324.56 873.06 333.18 862.03 337.16 C 856.22 338.89 850.13 339.52 844.08 339.33 C 841.54 339.27 838.97 338.86 836.49 339.55 C 837.86 341.82 837.41 344.62 837.84 347.15 C 839.30 358.04 842.04 368.91 847.03 378.75 C 849.41 383.52 855.12 384.77 860.00 384.68 C 863.94 384.88 869.37 383.05 871.34 387.75 C 871.33 388.33 871.30 389.49 871.28 390.07 C 870.48 391.87 869.45 393.57 868.11 395.01 C 863.45 400.33 858.47 405.64 852.18 409.01 C 842.01 414.39 830.02 413.83 818.95 412.45 C 808.36 410.91 798.00 407.44 788.77 402.01 C 787.04 406.33 784.57 410.29 782.63 414.51 C 768.81 442.73 760.82 473.66 758.38 504.95 C 758.30 506.27 758.13 507.58 757.87 508.89 C 757.61 512.43 757.58 515.99 757.44 519.55 C 769.17 520.14 778.96 528.57 784.52 538.43 C 790.66 549.95 793.50 563.01 794.10 575.99 C 795.63 594.03 794.00 612.16 792.14 630.10 C 790.18 646.23 787.46 662.53 780.76 677.46 C 773.33 693.38 762.11 708.08 746.86 717.19 C 739.43 745.43 729.44 773.03 716.18 799.07 C 704.79 822.21 690.95 844.33 673.24 863.18 C 658.96 878.39 643.83 893.09 626.19 904.39 C 606.65 916.80 586.04 927.85 563.95 934.96 C 546.95 940.48 529.00 943.72 511.09 942.42 C 498.57 941.64 486.27 939.13 474.18 935.88 C 463.53 932.57 453.11 928.60 442.85 924.24 C 412.85 910.95 385.87 891.39 362.32 868.66 C 349.97 856.87 339.21 843.50 329.71 829.34 C 307.71 797.68 292.96 761.63 282.14 724.80 C 280.74 719.72 279.47 714.61 277.85 709.60 C 275.60 709.50 273.34 709.42 271.15 708.86 C 269.74 708.62 268.33 708.40 266.92 708.20 L 266.35 707.77 C 255.67 705.45 246.78 698.11 240.79 689.16 C 234.63 680.19 230.18 670.10 227.21 659.65 L 226.84 659.09 C 221.70 640.28 219.71 620.55 221.52 601.11 C 223.80 582.75 229.69 564.59 240.00 549.14 C 244.09 543.66 248.66 538.02 255.11 535.26 C 253.86 508.18 253.56 481.08 252.85 453.99 C 252.51 435.68 252.47 417.36 253.22 399.06 C 240.05 406.80 229.95 419.22 224.14 433.27 C 222.86 436.24 222.71 439.53 221.64 442.56 C 220.87 444.79 218.07 446.19 215.96 444.87 C 202.71 435.94 195.39 420.59 192.79 405.18 C 192.45 402.09 192.34 398.99 192.09 395.90 C 191.70 393.91 191.71 391.88 191.83 389.87 C 192.49 385.51 192.62 381.08 193.80 376.81 C 197.65 362.42 206.11 349.78 216.29 339.10 C 205.54 335.65 195.84 329.63 186.56 323.33 C 173.03 314.33 161.57 301.79 155.24 286.71 C 151.20 277.26 149.07 267.06 148.13 256.85 C 146.28 241.16 147.76 224.70 154.35 210.20 C 163.21 192.17 178.62 177.66 196.51 168.73 C 198.89 167.53 201.42 166.48 204.14 166.48 C 205.80 167.91 208.00 169.48 207.68 172.00 C 206.91 174.37 205.69 176.60 205.31 179.11 C 201.70 192.13 213.51 206.67 227.02 205.73 C 236.84 205.16 245.79 200.54 254.97 197.43 C 249.01 186.27 245.45 173.70 245.62 161.00 C 245.83 152.30 248.10 143.78 251.59 135.85 C 253.03 133.19 257.30 132.26 259.49 134.47 C 260.95 137.12 261.52 140.29 263.76 142.50 C 266.83 146.06 271.83 146.63 276.22 147.05 C 284.19 147.34 292.15 145.47 299.49 142.44 C 313.01 137.33 325.33 129.69 337.87 122.61 C 353.89 113.76 370.57 106.07 387.81 99.90 C 415.81 90.20 445.84 86.63 475.34 89.36 C 474.95 89.12 474.17 88.64 473.78 88.41 C 465.67 76.73 465.70 61.68 467.35 48.12 C 468.67 42.26 469.36 35.09 474.84 31.49 M 476.72 43.84 C 475.46 47.40 475.52 51.20 474.84 54.88 C 474.66 57.63 474.66 60.39 474.70 63.14 C 476.99 67.70 479.45 72.27 483.01 75.98 C 491.72 84.68 502.16 91.52 513.30 96.72 C 516.61 98.03 520.08 98.91 523.51 99.88 C 542.09 105.65 560.23 113.08 577.11 122.84 C 592.50 131.96 607.09 142.55 619.93 155.05 C 634.11 168.46 647.13 183.38 656.70 200.47 C 659.69 206.43 663.15 212.36 664.27 219.02 C 664.74 220.94 664.02 222.79 663.23 224.51 C 661.33 224.74 658.11 225.65 657.57 223.00 C 654.38 208.50 645.02 196.42 636.24 184.81 C 614.21 157.39 586.07 134.66 553.93 120.17 C 526.17 107.78 496.41 99.44 466.09 96.88 C 458.45 96.64 450.73 96.24 443.13 97.13 C 416.00 98.63 389.55 106.53 365.08 118.12 C 347.89 125.60 332.17 135.89 315.52 144.40 C 302.10 150.89 287.34 157.00 272.13 154.97 C 266.08 154.15 260.09 151.54 256.39 146.51 C 253.49 155.54 253.03 165.37 255.34 174.58 C 259.34 181.74 267.52 184.89 275.16 186.41 C 283.46 188.09 291.71 185.43 299.81 183.88 C 317.04 180.98 334.53 179.19 352.01 180.00 C 379.05 181.51 405.43 188.72 430.69 198.15 C 461.11 209.44 489.49 227.62 509.80 253.22 C 511.35 254.88 510.82 257.26 510.52 259.28 C 508.87 259.73 506.99 260.86 505.43 259.56 C 491.36 242.49 473.61 228.46 454.20 217.86 C 434.03 206.99 412.13 199.74 390.01 194.07 C 368.20 188.66 345.49 186.81 323.13 189.15 C 307.79 190.47 292.50 193.13 277.81 197.84 C 262.91 202.28 248.97 209.60 233.81 213.27 C 227.15 214.19 220.01 214.40 213.84 211.31 C 205.86 207.23 199.55 199.87 197.37 191.12 C 196.03 186.73 196.67 182.12 196.78 177.63 C 179.25 188.09 163.42 203.80 158.09 224.05 C 154.13 240.84 155.25 258.61 159.87 275.14 C 164.26 291.15 174.89 305.09 188.42 314.53 C 195.40 318.44 203.06 321.06 210.78 323.10 C 218.45 325.18 226.61 324.73 234.26 322.79 C 238.66 321.96 242.13 318.96 246.03 316.97 C 272.16 302.41 302.47 297.61 332.04 296.88 C 348.73 296.75 365.60 297.87 381.80 302.13 C 384.55 302.98 387.36 303.74 389.90 305.11 C 391.31 305.99 393.10 307.12 392.87 309.06 C 393.09 311.46 390.45 313.26 388.25 312.48 C 373.72 306.22 357.56 306.15 342.03 305.22 C 322.62 304.93 303.02 306.27 284.16 311.05 C 256.83 317.53 231.15 332.47 213.75 354.75 C 206.31 365.03 200.64 377.10 200.24 389.96 C 199.72 405.61 203.91 422.26 215.16 433.66 C 223.89 408.70 245.64 388.08 271.99 383.32 C 275.12 382.59 277.90 386.38 276.32 389.16 C 274.38 392.10 270.08 391.22 267.93 393.88 C 264.68 397.66 262.93 402.40 260.74 406.81 C 260.58 419.91 260.69 433.02 260.88 446.12 C 262.00 463.72 261.03 481.43 262.29 499.03 C 262.61 505.61 261.64 512.46 264.07 518.76 C 264.89 521.38 266.72 524.95 270.04 524.27 C 272.12 523.35 273.60 521.37 273.92 519.11 C 280.23 495.96 290.40 474.16 298.95 451.80 C 304.24 436.72 308.28 421.25 313.00 406.00 C 313.51 403.58 313.81 400.77 312.38 398.61 C 310.98 396.93 308.98 395.87 307.00 395.04 C 304.16 394.62 301.02 395.24 298.65 393.24 C 298.10 391.15 298.20 388.62 300.35 387.47 C 303.78 386.30 307.51 386.75 311.06 386.32 C 322.03 385.15 333.01 386.87 343.99 386.52 C 355.19 386.22 366.44 384.25 376.75 379.79 C 385.30 376.69 393.27 370.00 395.52 360.90 C 394.68 359.51 393.90 357.48 391.96 357.45 C 389.19 357.34 386.56 358.70 383.77 358.58 C 383.23 358.22 382.16 357.48 381.62 357.11 C 380.63 355.27 380.57 352.84 382.51 351.60 C 386.16 349.29 390.69 349.09 394.76 347.84 C 411.36 342.96 428.99 344.77 445.85 347.14 C 465.04 349.67 484.62 351.06 503.81 347.78 C 517.58 345.36 530.95 341.06 543.87 335.81 C 551.64 332.39 559.46 329.03 566.79 324.73 C 570.21 322.69 572.66 319.34 574.25 315.74 C 573.04 314.08 571.26 312.26 569.00 312.71 C 566.04 312.79 563.47 315.12 560.49 314.53 C 557.33 313.54 557.58 308.74 560.40 307.42 C 566.73 304.45 574.04 304.76 580.75 306.08 C 594.31 308.70 605.75 316.88 617.72 323.25 C 630.79 330.59 644.98 335.87 659.46 339.66 C 666.57 341.66 673.85 339.81 681.03 339.47 C 684.13 339.04 687.43 340.99 688.18 344.11 C 689.87 349.99 692.85 355.47 697.00 359.99 C 706.34 370.29 719.99 374.62 731.60 381.67 C 740.73 386.56 748.10 394.29 753.48 403.06 C 756.24 406.68 750.78 411.38 747.51 408.33 C 744.75 405.03 741.74 400.69 736.82 401.21 C 732.51 407.65 734.21 415.90 732.67 423.15 C 729.63 439.57 726.74 456.77 731.40 473.18 C 733.68 479.89 737.10 487.22 743.96 490.25 C 750.91 488.11 752.75 480.13 754.17 473.90 C 757.83 455.12 763.68 436.81 771.24 419.24 C 773.43 410.31 775.11 400.96 773.21 391.83 C 771.94 386.19 770.94 380.24 767.33 375.54 C 765.43 373.15 764.65 369.91 766.82 367.41 C 768.35 367.29 769.89 367.26 771.44 367.34 C 777.67 375.30 782.21 384.55 789.15 391.96 C 796.10 397.92 805.09 400.82 813.80 403.14 C 823.35 405.02 833.35 406.32 842.92 403.88 C 849.36 402.12 854.61 397.73 859.00 392.87 C 852.60 392.79 845.51 390.93 841.65 385.41 C 837.15 379.13 835.05 371.56 832.80 364.27 C 829.30 352.69 829.91 340.29 826.21 328.76 C 824.91 325.67 823.95 322.43 822.29 319.51 C 813.70 302.54 801.67 286.89 785.71 276.26 C 771.74 266.69 755.81 260.22 739.24 256.82 C 735.79 256.20 732.35 255.50 728.87 255.10 C 718.59 253.82 707.92 253.36 697.78 255.83 C 696.47 256.20 695.16 256.54 693.86 256.86 L 693.27 257.19 C 689.59 257.86 683.92 262.00 681.62 257.13 C 680.61 252.47 686.31 251.54 689.51 250.39 C 704.30 244.83 720.52 245.29 735.88 247.80 C 746.80 249.93 757.75 252.51 767.88 257.20 C 787.82 265.55 805.77 279.08 818.20 296.88 C 822.26 302.19 824.95 308.58 830.11 313.01 C 837.41 319.50 844.68 326.65 854.14 329.86 C 857.45 330.58 860.64 328.92 863.56 327.54 C 871.01 323.52 876.98 316.93 880.58 309.28 C 871.70 307.97 862.28 307.93 854.28 303.33 C 842.45 296.46 834.49 284.80 827.81 273.20 C 818.33 256.43 812.20 237.83 800.79 222.17 C 788.81 205.71 772.16 193.06 754.02 184.05 C 747.70 181.11 740.98 178.68 733.95 178.37 C 730.56 178.11 726.97 178.91 723.88 177.13 C 721.68 173.39 723.23 168.86 721.63 164.90 C 716.60 148.53 709.55 132.05 696.90 120.07 C 682.73 106.92 665.49 97.53 647.60 90.47 C 629.38 83.61 610.28 78.97 590.88 77.17 C 575.58 75.25 560.10 74.84 544.86 72.36 C 529.24 69.65 513.43 66.73 498.90 60.14 C 490.29 56.64 482.75 50.87 476.72 43.84 M 573.07 330.14 C 563.66 336.23 553.44 340.90 543.04 345.02 C 528.19 350.69 512.82 355.51 496.91 356.91 C 491.00 357.93 484.96 357.69 478.98 357.81 C 472.68 357.67 466.32 357.94 460.09 356.89 C 446.37 356.04 432.82 352.80 419.03 353.17 C 414.44 360.60 408.05 366.65 402.09 372.95 C 395.54 379.91 387.09 384.79 378.19 388.11 C 361.91 394.89 343.89 395.28 326.53 394.15 C 322.55 404.99 318.76 415.90 315.39 426.95 C 311.52 439.92 307.73 452.93 302.50 465.43 C 295.13 483.46 287.48 501.43 282.16 520.20 C 277.90 535.84 275.10 551.86 272.86 567.89 C 272.50 570.96 272.40 574.05 272.15 577.13 C 271.08 583.00 271.86 589.03 270.89 594.91 C 270.63 605.88 269.77 617.02 272.17 627.83 C 272.44 629.93 272.63 632.05 272.85 634.17 C 273.82 640.02 274.07 645.99 274.33 651.91 C 278.60 677.91 284.32 703.70 292.05 728.90 C 301.16 758.72 312.98 787.92 329.73 814.31 C 340.54 831.64 352.85 848.18 367.62 862.35 C 388.63 882.81 412.60 900.34 438.87 913.43 C 443.68 916.00 449.23 916.26 454.49 917.29 C 495.25 923.44 537.23 925.23 577.81 916.88 C 585.58 914.87 593.72 913.68 600.88 909.85 C 615.62 901.65 630.16 892.82 642.78 881.54 C 661.59 864.67 679.14 846.10 692.60 824.61 C 721.66 777.38 740.20 723.93 748.16 669.13 C 751.01 636.20 752.73 603.09 750.97 570.04 C 750.63 564.52 750.83 558.95 749.73 553.50 C 748.88 540.62 749.83 527.31 745.11 515.02 C 739.92 499.92 726.78 488.90 722.73 473.27 C 719.63 459.04 720.50 444.34 723.07 430.12 C 725.58 416.15 727.93 401.74 725.35 387.60 C 713.62 380.91 700.29 376.11 691.16 365.72 C 686.20 360.62 682.87 354.21 680.48 347.56 C 679.61 347.67 678.76 347.78 677.91 347.90 C 673.67 348.78 669.32 348.71 665.02 348.69 C 658.62 348.65 652.61 346.23 646.53 344.56 C 638.97 341.89 631.34 339.33 624.14 335.80 C 612.31 330.40 601.56 322.98 589.80 317.45 C 584.16 321.59 579.12 326.55 573.07 330.14 M 757.38 527.22 C 757.42 533.19 757.60 539.15 757.88 545.12 C 758.89 551.65 758.14 558.34 759.14 564.88 C 759.66 577.25 759.83 589.64 759.75 602.02 C 759.52 612.30 759.94 622.65 758.88 632.88 C 758.38 638.54 758.80 644.29 757.90 649.91 C 757.43 653.88 757.73 657.94 756.88 661.87 C 756.53 666.95 755.98 672.01 755.45 677.07 C 755.61 680.24 757.72 685.47 761.76 683.93 C 768.45 681.49 773.34 675.26 775.45 668.60 C 782.35 650.20 783.83 630.43 785.71 611.03 C 786.64 589.60 788.00 567.05 779.44 546.85 C 776.20 538.39 769.92 530.82 761.25 527.66 C 760.28 527.55 758.35 527.33 757.38 527.22 M 240.20 565.17 C 236.13 574.37 232.73 583.95 231.00 593.89 C 227.48 612.18 229.11 631.06 232.84 649.18 C 236.13 662.75 241.10 676.22 249.70 687.36 C 253.28 692.31 260.94 695.29 266.22 691.20 C 270.42 686.99 270.74 680.55 270.15 674.97 C 266.65 657.40 263.70 639.69 262.15 621.84 C 261.22 615.56 260.64 609.22 260.12 602.89 C 258.01 583.17 256.84 563.32 255.47 543.52 C 248.41 549.10 243.90 557.12 240.20 565.17 Z" />
<path fill="#eef1f1" opacity="1.00" d=" M 601.10 99.23 C 605.83 99.49 610.22 101.43 614.50 103.29 C 629.44 110.24 643.86 118.80 655.55 130.55 C 672.96 147.80 685.40 169.99 691.29 193.76 C 691.64 196.24 691.60 198.76 691.20 201.23 C 690.31 201.44 689.42 201.65 688.55 201.86 C 683.84 183.35 674.86 165.98 663.17 150.91 C 654.05 139.03 642.40 129.34 629.95 121.13 C 622.68 115.97 614.79 111.71 607.76 106.21 C 605.30 104.14 602.59 102.17 601.10 99.23 Z" />
<path fill="#eef1f1" opacity="1.00" d=" M 457.59 145.78 C 466.25 145.32 474.67 147.77 482.98 149.84 C 493.01 152.69 502.95 156.05 512.27 160.79 C 528.19 169.24 543.03 179.59 557.26 190.62 C 576.94 206.03 594.84 224.45 606.36 246.85 C 607.99 250.26 610.19 253.90 609.07 257.84 C 607.54 256.05 606.24 254.08 605.04 252.06 C 594.63 235.26 581.63 220.10 566.67 207.18 C 551.26 193.93 534.46 182.28 516.75 172.32 C 501.37 163.49 484.23 158.58 467.84 152.06 C 464.43 150.01 460.12 149.03 457.59 145.78 Z" />
<path fill="#eef1f1" opacity="1.00" d=" M 685.99 147.52 C 689.96 149.80 692.03 154.10 694.19 157.94 C 698.83 167.00 702.01 177.25 700.36 187.52 C 699.44 187.44 697.58 188.37 697.38 186.93 C 695.97 181.61 695.38 176.06 693.03 171.02 C 690.55 163.24 686.31 155.85 685.99 147.52 Z" />
<path fill="#eef1f1" opacity="1.00" d=" M 651.19 161.08 C 656.66 164.17 660.24 169.50 663.63 174.61 C 667.96 181.66 671.87 189.03 674.47 196.92 C 675.76 200.73 676.87 204.79 676.00 208.83 C 673.86 207.41 673.59 204.67 672.55 202.52 C 668.10 192.73 662.10 183.77 656.65 174.52 C 654.16 170.39 651.32 166.05 651.19 161.08 Z" />
<path fill="#eef1f1" opacity="1.00" d=" M 566.22 173.98 C 568.18 174.55 570.18 175.06 572.02 175.97 C 584.94 183.73 594.82 195.54 603.02 208.00 C 609.76 218.54 616.33 229.25 621.32 240.75 C 621.59 242.48 621.73 244.22 621.74 245.97 C 619.06 245.33 618.30 242.29 616.80 240.33 C 607.06 225.58 597.77 210.32 585.47 197.49 C 580.57 192.08 575.07 187.24 570.18 181.82 C 568.24 179.59 566.49 176.99 566.22 173.98 Z" />
<path fill="#eef1f1" opacity="1.00" d=" M 730.75 200.31 C 730.20 198.07 732.40 197.01 734.14 196.55 C 741.10 194.90 748.30 197.22 754.31 200.74 C 758.40 203.12 762.86 205.59 765.22 209.88 C 756.03 209.94 748.62 203.55 739.90 201.61 C 736.91 200.80 733.83 200.45 730.75 200.31 Z" />
<path fill="#eef1f1" opacity="1.00" d=" M 719.72 210.69 C 722.45 210.47 725.18 210.32 727.89 209.86 C 728.69 209.86 730.30 209.86 731.11 209.86 C 734.01 210.39 736.99 210.37 739.87 211.09 C 748.47 213.34 756.71 216.99 764.11 221.93 C 776.16 230.29 786.83 240.45 797.19 250.78 C 801.11 254.64 804.39 259.09 807.56 263.57 L 807.39 264.45 C 803.00 262.80 799.07 260.08 795.21 257.46 C 786.54 250.61 778.12 243.46 769.67 236.36 C 757.34 225.85 742.54 217.20 726.16 215.51 C 722.74 214.99 719.28 214.68 715.82 214.86 C 715.68 214.18 715.54 213.51 715.41 212.83 C 716.79 212.03 718.24 211.32 719.72 210.69 Z" />
<path fill="#eef1f1" opacity="1.00" d=" M 532.27 215.80 C 534.98 215.46 537.70 215.98 540.28 216.83 C 555.62 222.26 567.97 233.98 576.59 247.53 C 578.19 249.96 579.60 252.64 579.84 255.60 C 579.39 255.57 578.49 255.50 578.05 255.47 C 571.25 246.82 563.76 238.56 554.68 232.26 C 547.28 226.69 538.01 223.36 532.27 215.80 Z" />
<path fill="#eef1f1" opacity="1.00" d=" M 337.08 217.15 C 350.49 215.29 364.00 217.88 377.13 220.51 C 399.51 225.80 420.92 234.53 441.54 244.62 C 457.34 252.57 472.62 261.66 486.81 272.24 C 488.81 273.88 491.67 275.50 491.20 278.55 C 483.24 274.89 475.96 269.95 468.27 265.79 C 446.58 253.39 423.76 242.96 400.12 234.87 C 399.14 234.52 398.16 234.17 397.20 233.81 C 384.08 229.50 370.56 226.63 357.04 223.92 C 350.24 222.28 342.97 221.16 337.08 217.15 Z" />
<path fill="#eef1f1" opacity="1.00" d=" M 702.41 226.46 C 705.08 223.55 709.39 223.58 713.05 223.43 C 720.98 223.21 728.89 225.48 735.66 229.57 C 737.63 230.89 739.79 232.74 739.66 235.35 C 735.53 236.03 731.67 234.47 727.88 233.11 C 719.88 230.10 711.62 227.22 702.94 227.74 C 702.80 227.42 702.54 226.78 702.41 226.46 Z" />
<path fill="#eef1f1" opacity="1.00" d=" M 299.95 256.01 C 304.35 253.98 309.31 254.30 314.03 253.74 C 324.02 253.24 334.03 253.91 344.01 254.47 C 379.70 258.01 412.90 273.18 443.72 290.74 C 447.42 292.95 451.12 295.18 454.48 297.89 C 454.52 298.44 454.61 299.55 454.65 300.10 C 452.41 299.82 450.55 298.50 448.58 297.54 C 422.41 285.55 396.03 273.37 367.77 267.16 C 351.13 263.39 334.07 262.33 317.17 260.34 C 311.37 259.25 305.22 258.86 299.95 256.01 Z" />
<path fill="#eef1f1" opacity="1.00" d=" M 411.25 259.24 C 411.69 259.14 412.56 258.94 413.00 258.84 C 421.83 260.44 430.23 263.74 438.43 267.29 C 445.46 270.68 452.79 273.99 458.48 279.47 C 459.55 280.78 461.60 281.93 460.87 283.93 C 459.50 284.28 458.55 282.91 457.44 282.40 C 442.75 273.31 425.40 269.27 411.25 259.24 Z" />
<path fill="#eef1f1" opacity="1.00" d=" M 700.39 274.00 C 703.35 271.14 707.74 271.67 711.46 272.31 C 719.60 273.94 727.63 276.74 734.53 281.43 C 736.02 282.35 737.58 283.35 738.34 285.03 C 725.57 284.71 714.13 278.28 701.83 275.64 C 701.34 275.09 700.86 274.54 700.39 274.00 Z" />
<path fill="#eef1f1" opacity="1.00" d=" M 696.39 294.67 C 695.44 291.95 699.20 291.55 701.06 291.46 C 720.08 290.69 738.61 297.65 754.75 307.27 C 770.96 317.18 784.61 330.71 796.97 345.02 C 800.49 349.14 803.93 353.51 805.74 358.69 C 802.54 358.39 800.05 356.12 797.51 354.38 C 783.72 343.25 772.90 328.86 758.64 318.27 C 745.23 307.84 729.51 300.58 713.09 296.41 C 707.60 295.38 702.01 293.91 696.39 294.67 Z" />
<path fill="#eef1f1" opacity="1.00" d=" M 700.08 311.09 C 701.13 308.59 704.02 309.23 706.17 309.27 C 711.34 309.98 716.40 311.51 721.12 313.77 C 727.34 316.61 733.59 320.02 737.97 325.43 C 735.42 325.99 732.92 325.23 730.61 324.25 C 724.66 321.67 718.82 318.85 713.00 316.01 C 708.83 313.99 704.24 313.08 700.08 311.09 Z" />
<path fill="#eef1f1" opacity="1.00" d=" M 328.03 321.21 C 338.10 319.96 348.22 321.29 358.18 322.79 C 360.85 324.00 365.23 323.50 366.21 326.91 C 356.33 326.82 346.48 325.82 336.76 324.12 C 333.83 323.25 330.55 323.03 328.03 321.21 Z" />
<path fill="#eef1f1" opacity="1.00" d=" M 270.12 341.58 C 300.24 333.61 332.16 332.37 362.76 338.25 C 364.51 338.53 365.97 339.54 366.99 340.98 C 354.01 341.31 341.00 339.63 328.00 340.56 C 315.51 340.84 303.04 342.21 290.83 344.89 C 284.21 346.00 277.82 348.11 271.18 349.11 C 263.94 350.33 256.44 352.91 249.12 350.96 C 255.00 345.76 262.85 343.96 270.12 341.58 Z" />
<path fill="#eef1f1" opacity="1.00" d=" M 325.59 348.92 C 326.75 347.57 328.40 346.77 330.17 346.58 C 339.05 345.60 347.80 347.86 356.49 349.33 C 358.25 349.96 361.07 349.60 361.64 351.89 C 351.74 352.02 341.73 353.65 331.91 351.78 C 329.56 351.46 327.50 350.25 325.59 348.92 Z" />
<path fill="#eef1f1" opacity="1.00" d=" M 387.85 502.34 C 409.18 498.87 431.42 500.16 451.95 507.07 C 457.92 509.11 464.46 511.29 468.43 516.53 C 470.96 520.10 472.50 525.17 470.01 529.18 C 467.53 532.95 462.34 533.96 458.26 532.47 C 450.15 529.65 442.99 524.68 434.89 521.85 C 424.38 517.90 413.23 515.93 402.10 514.85 C 397.69 514.61 393.27 514.60 388.87 514.84 C 381.38 515.73 373.86 517.07 366.82 519.88 C 364.56 520.74 362.48 522.50 359.93 522.27 C 358.03 521.70 356.45 520.22 355.40 518.59 C 354.27 515.26 357.14 512.36 359.74 510.78 C 368.25 505.70 378.19 503.86 387.85 502.34 Z" />
<path fill="#eef1f1" opacity="1.00" d=" M 616.16 504.13 C 625.07 502.91 634.16 503.29 643.12 503.85 C 652.80 504.95 662.50 506.53 671.86 509.35 C 676.68 511.23 682.31 512.92 685.22 517.53 C 687.52 521.19 683.31 525.20 679.81 525.29 C 671.23 520.83 661.69 518.73 652.13 517.84 C 647.72 517.59 643.30 517.61 638.90 517.85 C 625.14 518.92 611.40 521.84 598.86 527.77 C 593.01 530.55 587.48 534.23 581.10 535.70 C 576.44 536.82 570.69 534.29 569.85 529.23 C 568.78 521.54 575.16 515.19 581.84 512.63 C 592.75 508.10 604.43 505.41 616.16 504.13 Z" />
<path fill="#eef1f1" opacity="1.00" d=" M 394.02 541.93 C 404.45 533.09 423.01 537.24 427.81 550.29 C 429.95 554.63 429.90 559.53 429.30 564.22 C 427.28 570.90 422.87 577.78 415.82 579.84 C 409.17 582.64 401.24 581.64 395.26 577.70 C 390.58 574.09 386.85 569.12 385.72 563.23 C 384.69 555.38 387.26 546.56 394.02 541.93 Z" />
<path fill="#eef1f1" opacity="1.00" d=" M 623.46 542.42 C 628.06 539.91 633.52 540.01 638.58 540.68 C 643.43 541.74 647.51 544.94 650.99 548.35 C 654.53 553.52 656.17 559.93 655.27 566.17 C 653.67 573.97 647.76 580.65 640.24 583.26 C 632.62 585.77 623.83 583.65 617.90 578.36 C 615.65 575.07 612.83 572.00 612.05 567.96 C 609.39 558.28 613.89 546.41 623.46 542.42 Z" />
<path fill="#eef1f1" opacity="1.00" d=" M 434.16 670.95 C 436.07 656.27 444.21 642.57 456.07 633.79 C 455.99 634.45 455.83 635.78 455.75 636.44 C 451.78 641.27 448.50 646.72 446.44 652.64 C 445.61 654.70 444.93 656.85 443.78 658.79 C 441.87 666.28 441.15 674.68 443.81 682.07 C 446.31 685.72 447.41 690.30 450.67 693.43 C 454.89 697.79 461.14 699.23 465.41 703.53 C 465.59 704.17 465.94 705.46 466.11 706.10 C 461.88 706.34 457.62 705.42 453.88 703.44 C 448.39 701.31 442.95 698.31 439.43 693.46 C 434.90 686.97 432.54 678.82 434.16 670.95 Z" />
<path fill="#eef1f1" opacity="1.00" d=" M 569.93 635.01 C 573.75 636.48 576.36 639.97 579.44 642.56 C 583.47 645.76 585.82 650.45 588.25 654.88 C 593.18 664.35 594.59 675.82 591.12 686.03 C 589.21 692.90 585.02 699.38 578.88 703.17 C 577.28 705.20 574.73 706.76 572.07 706.46 C 573.12 701.50 576.49 697.67 579.54 693.83 C 582.10 691.93 582.96 688.78 584.06 685.96 C 588.11 675.07 586.79 662.43 580.44 652.69 C 576.88 647.70 573.20 642.76 569.42 637.91 C 569.55 637.18 569.80 635.74 569.93 635.01 Z" />
<path fill="#eef1f1" opacity="1.00" d=" M 527.52 686.29 C 533.92 682.65 541.48 680.18 548.90 681.48 C 553.49 682.47 559.25 686.15 556.97 691.67 C 555.16 690.52 554.28 688.26 552.14 687.60 C 547.59 685.12 542.32 686.94 537.83 688.60 C 529.99 694.16 522.07 701.20 511.94 701.57 C 504.79 701.23 497.52 699.40 491.55 695.31 C 488.21 693.21 485.18 690.64 481.91 688.46 C 478.56 686.99 475.50 689.45 473.00 691.36 C 472.33 691.12 470.99 690.65 470.32 690.41 C 470.34 689.26 470.39 688.12 470.48 686.99 C 474.33 682.91 480.53 681.19 485.87 683.09 C 493.28 685.29 498.23 692.20 505.89 693.81 C 511.26 695.37 516.61 693.09 521.15 690.36 C 522.80 688.36 525.34 687.56 527.52 686.29 Z" />
<path fill="#eef1f1" opacity="1.00" d=" M 414.29 768.95 C 415.34 767.40 416.81 767.96 418.19 768.64 C 419.18 771.19 420.08 773.79 420.71 776.47 C 437.91 779.61 455.42 780.84 472.88 781.48 C 495.26 781.66 517.65 781.72 540.04 781.72 C 553.10 781.74 566.15 780.88 579.13 779.44 C 585.16 778.63 591.33 778.83 597.22 777.10 C 598.78 775.51 598.18 772.90 598.68 770.88 C 599.30 770.60 600.55 770.06 601.17 769.79 C 602.54 774.63 604.57 780.47 601.85 785.15 C 599.49 783.72 598.11 781.31 598.03 778.55 C 590.68 781.83 582.58 782.44 574.87 784.44 C 566.90 787.24 558.33 787.22 550.04 788.33 C 532.17 789.11 514.28 788.74 496.41 788.28 C 489.00 787.24 481.48 787.84 474.08 786.83 C 469.72 786.45 465.34 786.47 460.99 785.99 C 447.32 783.65 433.49 782.18 419.94 779.13 C 417.67 782.64 415.06 786.49 411.06 788.13 C 411.11 784.32 412.77 780.86 414.51 777.57 C 416.12 774.87 413.76 771.84 414.29 768.95 Z" />
<path fill="#eef1f1" opacity="1.00" d=" M 478.97 811.94 C 480.78 810.66 483.01 810.37 485.14 810.00 C 488.12 809.69 491.12 809.64 494.11 809.83 C 512.61 811.59 531.24 809.95 549.77 810.76 C 549.58 811.29 549.21 812.34 549.03 812.86 C 537.87 815.65 526.28 815.68 514.94 817.32 C 504.07 818.77 492.94 818.20 482.33 815.46 C 481.05 814.62 478.23 813.92 478.97 811.94 Z" />
</g>
</svg>